<?xml version="1.0" encoding="UTF-8" standalone="no"?>
<!-- Created with Inkscape (http://www.inkscape.org/) -->
<svg
   xmlns:dc="http://purl.org/dc/elements/1.1/"
   xmlns:cc="http://creativecommons.org/ns#"
   xmlns:rdf="http://www.w3.org/1999/02/22-rdf-syntax-ns#"
   xmlns:svg="http://www.w3.org/2000/svg"
   xmlns="http://www.w3.org/2000/svg"
   xmlns:xlink="http://www.w3.org/1999/xlink"
   xmlns:sodipodi="http://sodipodi.sourceforge.net/DTD/sodipodi-0.dtd"
   xmlns:inkscape="http://www.inkscape.org/namespaces/inkscape"
   width="200"
   height="20.59375"
   id="svg2"
   sodipodi:version="0.32"
   inkscape:version="0.46"
   sodipodi:docname="isp_meter.svg"
   inkscape:output_extension="org.inkscape.output.svg.inkscape"
   version="1.0">
  <defs
     id="defs4">
    <linearGradient
       id="linearGradient3187">
      <stop
         style="stop-color:#6d6d6d;stop-opacity:1;"
         offset="0"
         id="stop3189" />
      <stop
         style="stop-color:#bfbfbf;stop-opacity:1;"
         offset="1"
         id="stop3191" />
    </linearGradient>
    <linearGradient
       id="linearGradient3179">
      <stop
         style="stop-color:#000000;stop-opacity:1;"
         offset="0"
         id="stop3181" />
      <stop
         style="stop-color:#000000;stop-opacity:0;"
         offset="1"
         id="stop3183" />
    </linearGradient>
    <linearGradient
       id="linearGradient3155">
      <stop
         style="stop-color:#919191;stop-opacity:1;"
         offset="0"
         id="stop3157" />
      <stop
         style="stop-color:#ffffff;stop-opacity:0;"
         offset="1"
         id="stop3159" />
    </linearGradient>
    <inkscape:perspective
       sodipodi:type="inkscape:persp3d"
       inkscape:vp_x="72.543966 : 755.50175 : 1"
       inkscape:vp_y="6.1230318e-14 : 1000 : 0"
       inkscape:vp_z="527.71123 : 745.78133 : 1"
       inkscape:persp3d-origin="372.04724 : 350.78739 : 1"
       id="perspective10" />
    <linearGradient
       inkscape:collect="always"
       xlink:href="#linearGradient3155"
       id="linearGradient3161"
       x1="225.71429"
       y1="282.72458"
       x2="225.71429"
       y2="340.09982"
       gradientUnits="userSpaceOnUse"
       gradientTransform="matrix(0.9969442,0,0,0.666086,-16.658374,145.36755)" />
  </defs>
  <sodipodi:namedview
     id="base"
     pagecolor="#ffffff"
     bordercolor="#666666"
     borderopacity="1.0"
     gridtolerance="10000"
     guidetolerance="10"
     objecttolerance="10"
     inkscape:pageopacity="0.0"
     inkscape:pageshadow="2"
     inkscape:zoom="3.6203867"
     inkscape:cx="103.5088"
     inkscape:cy="-1.7281564"
     inkscape:document-units="px"
     inkscape:current-layer="layer1"
     showgrid="false"
     inkscape:window-width="1279"
     inkscape:window-height="725"
     inkscape:window-x="1"
     inkscape:window-y="49" />
  <metadata
     id="metadata7">
    <rdf:RDF>
      <cc:Work
         rdf:about="">
        <dc:format>image/svg+xml</dc:format>
        <dc:type
           rdf:resource="http://purl.org/dc/dcmitype/StillImage" />
      </cc:Work>
    </rdf:RDF>
  </metadata>
  <g
     inkscape:label="Layer 1"
     inkscape:groupmode="layer"
     id="layer1"
     transform="translate(-108.36618,-335.9941)">
    <rect
       style="fill:url(#linearGradient3161);fill-opacity:1;stroke:#000000;stroke-width:0.61116976;stroke-linecap:round;stroke-linejoin:miter;stroke-miterlimit:0;stroke-dasharray:none;stroke-opacity:1"
       id="rect2383"
       width="199.38882"
       height="19.98258"
       x="108.67177"
       y="336.29968"
       ry="6.1850843"
       inkscape:export-filename="/home/jem/Desktop/text3197.png"
       inkscape:export-xdpi="90"
       inkscape:export-ydpi="90" />
    <rect
       style="fill:#17151c;fill-opacity:0.63274387;stroke:#000000;stroke-width:0.80344766;stroke-linecap:round;stroke-linejoin:miter;stroke-miterlimit:0;stroke-dasharray:none;stroke-opacity:0.77876108"
       id="rect3195"
       width="170.23405"
       height="12.421552"
       x="132.85172"
       y="339.9014"
       ry="4.186933"
       inkscape:export-filename="/home/jem/Desktop/text3197.png"
       inkscape:export-xdpi="90"
       inkscape:export-ydpi="90" />
    <path
       sodipodi:type="star"
       style="fill:#f2f2f2;fill-opacity:0.63274387;stroke:none;stroke-width:0.72500002;stroke-linecap:round;stroke-linejoin:miter;stroke-miterlimit:0;stroke-dasharray:none;stroke-opacity:0.77876108"
       id="path3214"
       sodipodi:sides="5"
       sodipodi:cx="112.69531"
       sodipodi:cy="341.91296"
       sodipodi:r1="11.117919"
       sodipodi:r2="5.5589595"
       sodipodi:arg1="0.44007634"
       sodipodi:arg2="1.0683949"
       inkscape:flatsided="false"
       inkscape:rounded="0"
       inkscape:randomized="0"
       d="M 122.75391,346.64929 L 115.37213,346.785 L 111.29907,352.94286 L 108.88892,345.96431 L 101.77379,343.99349 L 107.66602,339.5448 L 107.34168,332.1689 L 113.39343,336.39802 L 120.3081,333.81028 L 118.15607,340.8727 L 122.75391,346.64929 z"
       transform="matrix(0.8033552,0,0,0.7261895,30.474535,97.115714)"
       inkscape:export-filename="/home/jem/Desktop/text3197.png"
       inkscape:export-xdpi="90"
       inkscape:export-ydpi="90" />
    <path
       style="font-size:10.1637392px;font-style:normal;font-weight:normal;fill:#4d4d4d;fill-opacity:1;stroke:none;stroke-width:1px;stroke-linecap:butt;stroke-linejoin:miter;stroke-opacity:1;font-family:Bitstream Vera Sans"
       d="M 114.88998,343.1744 L 115.74482,343.04008 L 116.7619,349.20759 L 115.90704,349.34192 L 114.88998,343.1744 M 122.02482,342.76037 L 122.06269,343.58382 C 121.72735,343.44494 121.41237,343.34428 121.11773,343.28179 C 120.82308,343.21932 120.54017,343.19402 120.26897,343.2059 C 119.79795,343.22655 119.43807,343.33168 119.18936,343.52127 C 118.94349,343.71076 118.82811,343.9699 118.84324,344.29873 C 118.85593,344.5746 118.94977,344.7799 119.12473,344.91464 C 119.30241,345.04647 119.63018,345.14518 120.10804,345.2108 L 120.63526,345.2924 C 121.28592,345.38396 121.77097,345.5749 122.09039,345.86525 C 122.41253,346.1527 122.58528,346.55 122.60861,347.05717 C 122.63642,347.66186 122.44911,348.1294 122.04668,348.45976 C 121.6471,348.79 121.04624,348.9727 120.24407,349.00786 C 119.94148,349.02113 119.61735,349.00182 119.27172,348.94996 C 118.92893,348.89797 118.57182,348.81449 118.2004,348.69954 L 118.16041,347.83012 C 118.52038,348.007 118.87103,348.13682 119.21238,348.2196 C 119.55372,348.30235 119.88711,348.33661 120.21254,348.32235 C 120.7064,348.3007 121.08314,348.18925 121.34277,347.98801 C 121.60239,347.78675 121.72413,347.51058 121.70799,347.15946 C 121.69389,346.85293 121.5858,346.61754 121.38373,346.45327 C 121.18452,346.28889 120.86312,346.17313 120.41953,346.10602 L 119.88822,346.02879 C 119.23728,345.93166 118.76152,345.75566 118.46089,345.50079 C 118.16026,345.2459 117.99898,344.88021 117.97707,344.40371 C 117.95169,343.85196 118.1301,343.40855 118.51229,343.07348 C 118.89734,342.73829 119.43955,342.55537 120.13895,342.52472 C 120.43869,342.51158 120.74536,342.52466 121.05897,342.56397 C 121.37256,342.60327 121.6945,342.66875 122.02482,342.76037 M 125.32843,343.38181 L 125.14911,345.72258 L 126.2348,345.80184 C 126.6366,345.83118 126.95499,345.75232 127.18997,345.56527 C 127.42493,345.37824 127.55682,345.09694 127.58559,344.72142 C 127.61415,344.34867 127.52648,344.05278 127.32264,343.83368 C 127.11876,343.61461 126.81593,343.49041 126.41414,343.46108 L 125.32843,343.38181 M 124.51807,342.62615 L 126.46721,342.76844 C 127.18245,342.82065 127.71031,343.01864 128.05077,343.36237 C 128.39428,343.70353 128.54271,344.17871 128.49604,344.78789 C 128.44894,345.40263 128.22954,345.85375 127.83787,346.14124 C 127.44903,346.42894 126.89699,346.54669 126.18175,346.49447 L 125.09604,346.41521 L 124.90425,348.9187 L 124.04081,348.85567 L 124.51807,342.62615"
       id="text3197"
       inkscape:export-xdpi="90"
       inkscape:export-ydpi="90" />
  </g>
</svg>
